<svg width="1440" height="414" viewBox="0 0 1440 414" fill="none" xmlns="http://www.w3.org/2000/svg">
<g clip-path="url(#clip0)">
<path d="M1601 368.676C1446.62 368.861 1293.73 333.261 1194.65 274.299C1108.56 223.124 1064.03 157.857 990.178 102.232C916.33 46.6067 791.643 -2.34339 659.904 9.89412C569.728 18.2379 497.736 54.2088 455.431 95.0005C413.126 135.607 394.571 181.405 371.934 225.905C349.298 270.405 320.352 315.461 261.348 350.691C186.758 395.376 65.7815 419.48 -50 412.62" stroke="#DAB56B" stroke-miterlimit="10"/>
<path d="M1549.42 371.457C1404.69 371.457 1261.45 338.267 1168.3 283.013C1087.41 235.175 1045.84 173.802 976.819 121.7C907.424 69.4127 790.53 23.6147 667.326 35.1105C582.717 42.898 515.548 76.6439 475.47 114.84C435.763 153.036 418.322 195.867 397.169 237.4C376.017 279.119 348.927 321.394 293.634 354.399C223.868 396.303 110.313 418.924 1.95357 412.434" stroke="#DAB56B" stroke-miterlimit="10"/>
<path d="M1497.84 374.239C1362.76 374.239 1229.16 343.274 1142.33 291.728C1067 247.043 1028.03 189.934 963.46 141.169C898.889 92.4048 789.787 49.7589 674.748 60.3276C595.705 67.7443 532.99 99.0798 495.88 134.68C458.771 170.28 442.814 210.145 422.775 249.082C402.736 288.02 377.501 327.514 326.29 358.293C260.977 397.416 155.216 418.368 53.9068 412.434" stroke="#DAB56B" stroke-miterlimit="10"/>
<path d="M1445.88 377.02C1320.45 377.02 1196.51 348.28 1115.61 300.443C1045.47 258.909 1009.48 205.88 949.729 160.638C889.983 115.397 788.303 75.7174 681.428 85.7299C607.951 92.5903 549.689 121.701 515.177 154.89C480.665 187.895 465.822 224.978 447.267 261.134C428.712 297.291 405.333 334.003 357.462 362.557C296.974 398.899 198.633 418.368 104.746 412.805" stroke="#DAB56B" stroke-miterlimit="10"/>
<path d="M1394.3 379.801C1278.52 379.801 1164.22 353.286 1089.63 309.157C1025.06 270.776 991.663 221.826 936.37 180.107C881.077 138.388 787.561 101.675 688.85 110.946C621.311 117.25 567.502 144.136 535.588 174.73C503.674 205.323 489.943 239.44 472.873 272.815C455.802 306.19 434.279 339.936 390.119 366.451C334.083 399.826 243.536 417.811 156.7 412.805" stroke="#DAB56B" stroke-miterlimit="10"/>
</g>
<defs>
<clipPath id="clip0">
<rect width="1440" height="414" fill="white"/>
</clipPath>
</defs>
</svg>
