<svg width="643" height="422" viewBox="0 0 643 422" fill="none" xmlns="http://www.w3.org/2000/svg">
<path d="M855.208 47.6995C775.336 47.5075 696.232 84.3715 644.968 145.427C600.424 198.419 577.384 266.003 539.176 323.603C500.968 381.203 436.456 431.892 368.296 419.22C321.64 410.58 284.392 373.331 262.504 331.091C240.616 289.043 231.016 241.619 219.304 195.539C207.592 149.459 192.616 102.803 162.088 66.3235C123.496 20.0515 60.904 -4.9085 0.999991 2.1955" stroke="#DAB56B" stroke-miterlimit="10"/>
<path d="M828.52 44.8195C753.64 44.8195 679.528 79.1875 631.336 136.403C589.48 185.939 567.976 249.491 532.264 303.443C496.36 357.587 435.88 405.011 372.136 393.107C328.36 385.043 293.608 350.099 272.872 310.547C252.328 270.995 243.304 226.643 232.36 183.635C221.416 140.435 207.4 96.6595 178.792 62.4835C142.696 19.0915 83.9441 -4.33254 27.8801 2.38746" stroke="#DAB56B" stroke-miterlimit="10"/>
<path d="M801.832 41.9396C731.944 41.9396 662.824 74.0036 617.896 127.38C578.92 173.652 558.76 232.788 525.352 283.284C491.944 333.78 435.496 377.94 375.976 366.996C335.08 359.316 302.632 326.868 283.432 290.004C264.232 253.14 255.976 211.86 245.608 171.54C235.24 131.22 222.184 90.3236 195.688 58.4516C161.896 17.9396 107.176 -3.75645 54.76 2.38755" stroke="#DAB56B" stroke-miterlimit="10"/>
<path d="M774.952 39.0594C710.056 39.0594 645.928 68.8194 604.072 118.355C567.784 161.363 549.16 216.275 518.248 263.123C487.336 309.971 434.728 351.059 379.432 340.691C341.416 333.587 311.272 303.443 293.416 269.075C275.56 234.899 267.88 196.499 258.28 159.059C248.68 121.619 236.584 83.6034 211.816 54.0354C180.52 16.4034 129.64 -3.75659 81.0639 2.00341" stroke="#DAB56B" stroke-miterlimit="10"/>
<path d="M748.264 36.1794C688.36 36.1794 629.224 63.6354 590.632 109.331C557.224 149.075 539.944 199.763 511.336 242.963C482.728 286.163 434.344 324.179 383.272 314.579C348.328 308.051 320.488 280.211 303.976 248.531C287.464 216.851 280.36 181.523 271.528 146.963C262.696 112.403 251.56 77.4594 228.712 50.0034C199.72 15.4434 152.872 -3.18061 107.944 2.00339" stroke="#DAB56B" stroke-miterlimit="10"/>
</svg>
