<svg width="375" height="463" viewBox="0 0 375 463" fill="none" xmlns="http://www.w3.org/2000/svg">
<g clip-path="url(#clip0)">
<path d="M6.95215 -98C11.7521 -63.44 42.2802 -37.328 74.9202 -25.04C107.56 -12.752 143.272 -11.216 177.64 -5.84C212.2 -0.464002 247.912 10.288 271.528 36.016C313.576 81.712 301.288 152.944 307.816 214.768C317.8 308.272 380.776 394.288 467.176 431.728" stroke="#DAB56B" stroke-miterlimit="10"/>
<path d="M-10.9043 -82.2559C-6.1043 -47.6959 24.4238 -21.5839 57.0638 -9.29586C89.7038 2.99214 125.416 4.52814 159.784 9.90414C194.344 15.2801 230.056 26.0321 253.672 51.7601C295.72 97.4561 283.432 168.688 289.96 230.512C299.944 324.016 362.92 410.032 449.32 447.472" stroke="#DAB56B" stroke-miterlimit="10"/>
<path d="M-28.9521 -66.7041C-24.1521 -32.1441 6.37591 -6.0321 39.0159 6.2559C71.6559 18.5439 107.368 20.0799 141.736 25.4559C176.296 30.8319 212.008 41.5839 235.624 67.3119C277.672 113.008 265.384 184.24 271.912 246.064C281.896 339.568 344.872 425.584 431.272 463.024" stroke="#DAB56B" stroke-miterlimit="10"/>
<path d="M-47 -51.1523C-42.2 -16.5923 -11.6721 9.51966 20.9679 21.8077C53.6079 34.0957 89.3199 35.6317 123.688 41.0077C158.248 46.3837 193.96 57.1357 217.576 82.8637C259.624 128.56 247.336 199.792 253.864 261.616C263.848 355.12 326.824 441.136 413.224 478.576" stroke="#DAB56B" stroke-miterlimit="10"/>
</g>
<defs>
<clipPath id="clip0">
<rect width="375" height="463" fill="white"/>
</clipPath>
</defs>
</svg>
