<?xml version="1.0" encoding="utf-8"?>
<!-- Generator: Adobe Illustrator 25.0.1, SVG Export Plug-In . SVG Version: 6.00 Build 0)  -->
<svg version="1.1" id="Слой_1" xmlns="http://www.w3.org/2000/svg" xmlns:xlink="http://www.w3.org/1999/xlink" x="0px" y="0px"
	 viewBox="0 0 375 463" style="enable-background:new 0 0 375 463;" xml:space="preserve">
<style type="text/css">
	.st0{fill:#DAB56B;}
</style>
<path class="st0" d="M375,457.4v1.2c-26.8-17.6-50.8-40.3-70.5-67.1c-28.5-38.9-46.2-83.8-51.1-129.7c-1.7-15.9-2.1-32.7-2.5-49
	c-1.3-47.1-2.5-95.7-33.6-129.6c-19.8-21.6-49.5-34.9-93.6-41.7c-9.2-1.4-18.6-2.6-27.7-3.8c-25.2-3.2-51.2-6.4-75.1-15.5
	C14,19.7,6.9,16.3,0,12.3v-1.2c7,4.2,14.2,7.6,21.2,10.2C45,30.3,71,33.6,96.1,36.7c9.1,1.2,18.5,2.3,27.7,3.8
	c44.3,6.9,74.3,20.3,94.2,42.1c31.4,34.1,32.6,83,33.9,130.2c0.4,16.2,0.9,33,2.5,48.9C262.9,341,308.8,414,375,457.4z"/>
<path class="st0" d="M375,429v1.2c-19.6-15.3-37.3-33.6-52.5-54.2c-28.5-38.9-46.2-83.8-51.1-129.7c-1.7-15.9-2.1-32.7-2.5-49
	c-1.3-47.1-2.5-95.7-33.6-129.6c-19.8-21.6-49.5-34.9-93.6-41.7c-9.2-1.5-18.6-2.6-27.7-3.8c-25.1-3.1-51.1-6.4-75.1-15.4
	c-5-1.9-10-4.1-15-6.8H26c4.4,2.2,8.9,4.2,13.2,5.8c23.8,9,49.8,12.3,74.8,15.4c9.1,1.2,18.6,2.3,27.8,3.8
	c44.3,6.9,74.3,20.3,94.2,42.1c31.4,34.1,32.6,83,33.9,130.2c0.4,16.2,0.9,33,2.5,48.9C280.1,318.1,318.5,384.8,375,429z"/>
<path class="st0" d="M375,397.9v1.2c-12.5-11.7-24-24.6-34.3-38.7c-28.5-38.9-46.2-83.8-51.2-129.7c-1.7-15.9-2.1-32.7-2.5-48.9
	c-1.3-47.1-2.5-95.7-33.6-129.6c-19.8-21.6-49.5-34.9-93.6-41.7C150.6,9,141.2,7.8,132,6.6C117.6,4.8,102.8,3,88.3,0h5.2
	c12.8,2.4,25.8,4,38.6,5.6c9.1,1.1,18.5,2.3,27.7,3.8c44.3,6.9,74.3,20.3,94.2,42.1c31.3,34.1,32.6,83,33.9,130.2
	c0.4,16.2,0.9,33,2.5,48.9C297.3,294.5,328.5,354.4,375,397.9z"/>
<path class="st0" d="M375,363.8v1.2c-5.8-6.5-11.3-13.3-16.5-20.3c-28.5-38.9-46.2-83.8-51.1-129.7c-1.7-15.9-2.1-32.7-2.5-49
	c-1.3-47.1-2.5-95.7-33.6-129.6C255.7,19.4,234,7.6,204,0h3.9c28.3,7.7,49,19.3,64.1,35.8c31.4,34.1,32.6,83,33.9,130.2
	c0.4,16.2,0.9,33,2.5,48.9C314.3,270.2,338.5,322.5,375,363.8z"/>
</svg>
