<svg width="765" height="445" viewBox="0 0 765 445" fill="none" xmlns="http://www.w3.org/2000/svg">
<g clip-path="url(#clip0)">
<path d="M16.6399 545.781C3.39195 497.589 -6.20803 444.981 12.224 398.709C36.416 337.845 103.424 303.861 168.512 295.989C233.6 288.117 298.88 301.173 364.16 305.973C429.44 310.965 499.328 306.549 553.088 269.301C627.776 217.653 652.16 116.853 719.552 55.7967C775.616 4.91669 860.48 -11.7873 931.712 13.9407" stroke="#37342C" stroke-miterlimit="10"/>
<path d="M66.1759 545.781C53.6959 500.277 44.4799 450.549 61.9519 406.581C84.7999 348.981 148.352 316.725 209.792 309.429C271.232 302.133 333.248 314.229 394.88 319.029C456.704 323.637 522.752 319.605 573.632 284.469C644.288 235.509 667.328 140.277 731.072 82.4849C784.256 34.4849 864.32 18.5488 931.712 42.7408" stroke="#37342C" stroke-miterlimit="10"/>
<path d="M115.52 545.781C103.808 502.773 95.1677 455.925 111.68 414.453C133.184 360.117 193.088 329.781 251.072 322.869C309.056 315.957 367.424 327.477 425.6 331.893C483.776 336.309 546.176 332.469 594.176 299.253C660.8 253.173 682.496 163.125 742.592 108.789C792.704 63.4766 868.352 48.5006 931.904 71.3486" stroke="#37342C" stroke-miterlimit="10"/>
<path d="M165.056 545.781C153.92 505.461 145.856 461.301 161.408 422.517C181.76 371.445 237.824 343.029 292.352 336.501C346.88 329.973 401.6 340.725 456.32 344.949C511.04 349.173 569.6 345.525 614.72 314.229C677.312 270.837 697.856 186.357 754.112 135.285C801.152 92.6608 872.192 78.6448 931.904 100.149" stroke="#37342C" stroke-miterlimit="10"/>
<path d="M214.4 545.781C204.032 507.957 196.544 466.869 210.944 430.389C229.952 382.773 282.56 356.085 333.44 349.941C384.32 343.797 435.776 353.973 486.848 357.813C538.112 361.653 592.832 358.389 635.072 329.013C693.632 288.501 712.832 209.396 765.632 161.78C809.6 122.036 876.032 108.788 931.904 128.948" stroke="#37342C" stroke-miterlimit="10"/>
</g>
<defs>
<clipPath id="clip0">
<rect width="765" height="445" fill="white"/>
</clipPath>
</defs>
</svg>
