<?xml version="1.0" encoding="utf-8"?>
<!-- Generator: Adobe Illustrator 25.0.1, SVG Export Plug-In . SVG Version: 6.00 Build 0)  -->
<svg version="1.1" id="Слой_1" xmlns="http://www.w3.org/2000/svg" xmlns:xlink="http://www.w3.org/1999/xlink" x="0px" y="0px"
	 viewBox="0 0 765 445" style="enable-background:new 0 0 765 445;" xml:space="preserve">
<style type="text/css">
	.st0{fill:#37342C;}
</style>
<path class="st0" d="M765,24.3v1.1c-16.3,8.2-31.6,18.5-45.1,30.7c-30.7,27.8-52.7,64.4-74.1,99.7c-25.4,42.1-51.7,85.6-92.4,113.8
	c-24.7,17.1-55.1,28.7-90.3,34.3c-28.8,4.6-61.1,5.4-98.9,2.5c-18.5-1.4-37.3-3.4-55.5-5.4c-46-5-93.5-10.2-140.1-4.6
	c-58.5,7.1-130.2,37.7-155.9,102.4c-5.9,14.9-8.9,30.4-9.9,46.2h-1c0.9-15.9,4-31.5,10-46.5c25.9-65.1,97.9-95.9,156.7-103
	c46.7-5.7,94.3-0.4,140.3,4.6c18.2,2,36.9,4,55.4,5.4c83.4,6.4,143.4-5.2,188.6-36.6c40.6-28,66.8-71.5,92.1-113.5
	c21.4-35.4,43.5-72.1,74.3-100C732.9,43,748.4,32.6,765,24.3z"/>
<path class="st0" d="M765,57.4v1.1c-12,6.8-23.3,14.9-33.6,24.1c-29,26.3-49.9,60.9-70.1,94.3c-24,39.8-48.9,81-87.4,107.7
	c-35.4,24.4-80.4,36.2-139.8,36.2c-12.5,0-25.5-0.5-39.3-1.5c-16.8-1.3-34-3.2-50.5-5c-44.2-4.9-89.8-9.9-134.5-4.6
	c-55.3,6.6-123.1,35.5-147.4,96.8c-4.9,12.4-7.7,25.4-8.9,38.5h-1c1.2-13.2,4-26.1,9-38.6c24.5-61.8,92.7-90.9,148.2-97.5
	c44.7-5.3,90.5-0.3,134.7,4.6c16.6,1.8,33.7,3.7,50.5,5c79.1,5.9,135.8-5.1,178.4-34.5c38.4-26.6,63.1-67.7,87.1-107.4
	c20.2-33.5,41.1-68.2,70.3-94.6C741.1,72.6,752.7,64.3,765,57.4z"/>
<path class="st0" d="M765,91v1.2c-7.8,5-15.1,10.7-22,16.9c-27.4,24.7-47,57.4-66.1,89c-22.6,37.6-46.1,76.4-82.4,101.5
	c-40.5,28-94.1,38.4-168.9,32.7c-16.2-1.2-32.7-3-48.6-4.8c-41.3-4.5-84-9.2-125.9-4.2c-52.2,6.2-116.1,33.5-139,91.3
	c-3.9,9.9-6.4,20-7.8,30.4h-1c1.4-10.5,3.9-20.8,7.9-30.7c23-58.2,87.3-85.6,139.8-91.9c41.9-5,84.7-0.3,126.1,4.2
	c15.9,1.7,32.4,3.6,48.5,4.8c74.5,5.7,128-4.7,168.3-32.6c36.1-25,59.5-63.7,82.1-101.2c19.1-31.6,38.8-64.4,66.3-89.2
	C749.4,102,757,96.2,765,91z"/>
<path class="st0" d="M765,125.7v1.2c-3.6,2.8-7.1,5.7-10.5,8.7c-25.6,23.2-44,53.8-61.9,83.4c-21.3,35.3-43.4,71.9-77.6,95.6
	c-38.1,26.4-88.5,36.2-158.7,30.8c-15-1.2-30.3-2.8-45.1-4.5c-39-4.3-79.3-8.7-118.8-4c-48.9,5.9-108.9,31.4-130.5,85.7
	c-2.9,7.3-5,14.7-6.4,22.3h-1c1.4-7.7,3.5-15.3,6.5-22.7c21.8-54.7,82.1-80.4,131.3-86.3c39.6-4.7,80-0.3,119,4
	c14.8,1.6,30,3.3,45,4.5c69.9,5.4,120.2-4.3,158.1-30.6c34-23.6,56-60,77.3-95.3c17.9-29.7,36.4-60.3,62.1-83.6
	C757.4,131.7,761.1,128.6,765,125.7z"/>
<path class="st0" d="M765,161.7v1.3c-23.5,21.6-40.6,49.9-57.1,77.2c-19.9,33-40.5,67.1-72.5,89.2c-35.4,24.6-82.6,33.8-148.5,28.9
	c-14.3-1.1-28.8-2.7-42.8-4.2c-36.3-4-73.8-8.1-110.5-3.7c-45.8,5.5-101.9,29.5-122.1,80.1c-1.9,4.8-3.4,9.6-4.5,14.5h-1.1
	c1.2-5,2.7-9.9,4.6-14.8c20.4-51.1,76.9-75.2,122.9-80.8c36.7-4.4,74.3-0.3,110.7,3.7c14,1.5,28.6,3.1,42.8,4.2
	c65.7,4.9,112.7-4.2,147.9-28.7c31.7-22,52.3-56,72.2-88.9C723.7,212,741,183.4,765,161.7z"/>
</svg>
