<svg width="423" height="579" viewBox="0 0 423 579" fill="none" xmlns="http://www.w3.org/2000/svg">
<path d="M54.9519 1C59.7519 35.56 90.28 61.672 122.92 73.96C155.56 86.248 191.272 87.784 225.64 93.16C260.2 98.536 295.912 109.288 319.528 135.016C361.576 180.712 349.288 251.944 355.816 313.768C365.8 407.272 428.776 493.288 515.176 530.728" stroke="#DAB56B" stroke-miterlimit="10"/>
<path d="M37.0959 16.744C41.8959 51.304 72.424 77.416 105.064 89.704C137.704 101.992 173.416 103.528 207.784 108.904C242.344 114.28 278.056 125.032 301.672 150.76C343.72 196.456 331.432 267.688 337.96 329.512C347.944 423.016 410.92 509.032 497.32 546.472" stroke="#DAB56B" stroke-miterlimit="10"/>
<path d="M19.0479 32.296C23.8479 66.856 54.3759 92.968 87.0159 105.256C119.656 117.544 155.368 119.08 189.736 124.456C224.296 129.832 260.008 140.584 283.624 166.312C325.672 212.008 313.384 283.24 319.912 345.064C329.896 438.568 392.872 524.584 479.272 562.024" stroke="#DAB56B" stroke-miterlimit="10"/>
<path d="M1 47.8479C5.8 82.4079 36.3279 108.52 68.9679 120.808C101.608 133.096 137.32 134.632 171.688 140.008C206.248 145.384 241.96 156.136 265.576 181.864C307.624 227.56 295.336 298.792 301.864 360.616C311.848 454.12 374.824 540.136 461.224 577.576" stroke="#DAB56B" stroke-miterlimit="10"/>
</svg>
