<svg width="932" height="545" viewBox="0 0 932 545" fill="none" xmlns="http://www.w3.org/2000/svg">
<path d="M15.6399 544.781C2.39195 496.589 -7.20803 443.981 11.224 397.709C35.416 336.845 102.424 302.861 167.512 294.989C232.6 287.117 297.88 300.173 363.16 304.973C428.44 309.965 498.328 305.549 552.088 268.301C626.776 216.653 651.16 115.853 718.552 54.7967C774.616 3.91669 859.48 -12.7873 930.712 12.9407" stroke="#37342C" stroke-miterlimit="10"/>
<path d="M65.1759 544.781C52.6959 499.277 43.4799 449.549 60.9519 405.581C83.7999 347.981 147.352 315.725 208.792 308.429C270.232 301.133 332.248 313.229 393.88 318.029C455.704 322.637 521.752 318.605 572.632 283.469C643.288 234.509 666.328 139.277 730.072 81.4847C783.256 33.4847 863.32 17.5487 930.712 41.7407" stroke="#37342C" stroke-miterlimit="10"/>
<path d="M114.52 544.781C102.808 501.773 94.168 454.925 110.68 413.453C132.184 359.117 192.088 328.781 250.072 321.869C308.056 314.957 366.424 326.477 424.6 330.893C482.776 335.309 545.176 331.469 593.176 298.253C659.8 252.173 681.496 162.125 741.592 107.789C791.704 62.4767 867.352 47.5007 930.904 70.3487" stroke="#37342C" stroke-miterlimit="10"/>
<path d="M164.056 544.781C152.92 504.461 144.856 460.301 160.408 421.517C180.76 370.445 236.824 342.029 291.352 335.501C345.88 328.973 400.6 339.725 455.32 343.949C510.04 348.173 568.6 344.525 613.72 313.229C676.312 269.837 696.856 185.357 753.112 134.285C800.152 91.6608 871.192 77.6448 930.904 99.1488" stroke="#37342C" stroke-miterlimit="10"/>
<path d="M213.4 544.781C203.032 506.957 195.544 465.869 209.944 429.389C228.952 381.773 281.56 355.085 332.44 348.941C383.32 342.797 434.776 352.973 485.848 356.813C537.112 360.653 591.832 357.389 634.072 328.013C692.632 287.501 711.832 208.397 764.632 160.781C808.6 121.037 875.032 107.789 930.904 127.949" stroke="#37342C" stroke-miterlimit="10"/>
</svg>
